<?xml version="1.0" standalone="no"?>
<!DOCTYPE svg PUBLIC "-//W3C//DTD SVG 20010904//EN"
 "http://www.w3.org/TR/2001/REC-SVG-20010904/DTD/svg10.dtd">
<svg version="1.0" xmlns="http://www.w3.org/2000/svg"
 width="512.000000pt" height="512.000000pt" viewBox="0 0 512.000000 512.000000"
 preserveAspectRatio="xMidYMid meet">
<metadata>
Created by potrace 1.14, written by Peter Selinger 2001-2017
</metadata>
<g transform="translate(0.000000,512.000000) scale(0.100000,-0.100000)"
fill="#000000" stroke="none">
<path d="M415 5110 c-183 -38 -330 -170 -391 -350 -18 -53 -19 -134 -19 -2200
0 -2066 1 -2147 19 -2200 52 -154 168 -274 322 -332 l59 -23 2155 0 2155 0 59
23 c154 58 270 178 322 332 18 53 19 134 19 2200 0 2066 -1 2147 -19 2200 -52
154 -168 274 -322 332 l-59 23 -2130 1 c-1172 1 -2148 -2 -2170 -6z m836
-2224 c145 -420 265 -763 267 -761 2 2 122 344 266 762 l263 758 302 3 c191 1
301 -1 301 -7 0 -7 -748 -1992 -815 -2163 -7 -17 -31 -18 -317 -18 l-309 0
-14 35 c-19 43 -815 2147 -815 2152 0 2 136 3 303 3 l303 0 265 -764z m3104
736 c168 -46 262 -117 325 -245 56 -116 64 -178 63 -517 0 -279 -2 -312 -21
-382 -44 -162 -115 -259 -233 -318 -120 -61 -140 -63 -649 -69 l-465 -6 -3
-312 -2 -313 -280 0 -280 0 0 1088 c0 599 3 1092 7 1096 4 4 334 6 733 4 709
-4 727 -5 805 -26z"/>
<path d="M3372 2868 l3 -343 290 -3 c160 -2 318 0 352 3 72 8 117 33 147 85
19 32 21 51 21 250 0 246 -8 282 -74 323 -35 22 -44 22 -389 25 l-352 3 2
-343z"/>
</g>
</svg>
